<?xml version="1.0" standalone="no"?><!DOCTYPE svg PUBLIC "-//W3C//DTD SVG 1.1//EN" "http://www.w3.org/Graphics/SVG/1.1/DTD/svg11.dtd"><svg t="1631622142349" class="icon" viewBox="0 0 1024 1024" version="1.1" xmlns="http://www.w3.org/2000/svg" p-id="23519" xmlns:xlink="http://www.w3.org/1999/xlink" width="200" height="200"><defs><style type="text/css"></style></defs><path d="M896 1024h-768A128 128 0 0 1 0 896v-768A128 128 0 0 1 128 0h768A128 128 0 0 1 1024 128v768a128 128 0 0 1-128 128" fill="#F9729A" p-id="23520"></path><path d="M584.773818 341.76l0.581818 2.746182c-4.049455 79.685818 1.582545 159.557818 10.24 238.778182 21.922909-3.025455 44.194909-2.350545 65.908364 1.931636 22.341818 3.84 44.125091 10.472727 64.837818 19.642182 11.450182 5.515636 23.226182 11.589818 31.232 21.76 6.772364 8.96 3.956364 21.317818-0.837818 30.533818-7.68 13.381818-20.154182 23.296-33.093818 31.301818-33.652364 20.48-72.704 29.626182-111.476364 33.605818-15.872 2.094545-31.813818 2.420364-47.755636 1.908364-10.100364-112.174545-21.504-224.581818-42.752-335.546182-0.954182-6.981818-3.84-13.568-4.352-20.619636 5.632-2.141091 11.217455-4.468364 16.756363-6.842182l11.101091-4.794182c12.962909-5.585455 25.972364-10.938182 39.610182-14.405818z m40.890182 279.04c0 3.514182 0.395636 7.051636 1.093818 10.496 3.653818 18.501818 4.538182 37.515636 8.122182 56.064 13.824-9.285818 27.066182-19.456 40.378182-29.509818 5.003636-4.096 10.752-7.610182 14.731636-12.8-6.144-4.026182-13.381818-6.074182-20.037818-8.890182-14.661818-5.585455-29.114182-11.589818-44.288-15.36zM153.413818 341.690182c1.093818 10.24-0.907636 20.736-0.837818 31.045818a1699.281455 1699.281455 0 0 0 11.333818 210.501818c41.541818-6.144 83.968 3.188364 122.810182 18.106182a125.905455 125.905455 0 0 1 32.512 18.385455c5.306182 4.584727 10.752 10.472727 10.565818 17.92 0.884364 15.662545-9.797818 28.904727-20.992 38.702545a190.72 190.72 0 0 1-65.28 33.536c-35.956364 10.472727-73.309091 15.220364-110.731636 14.08-10.938182-119.109818-22.714182-238.778182-47.104-356.096a1405.253818 1405.253818 0 0 0 44.288-18.501818c7.68-3.002182 15.243636-6.842182 23.435636-7.68z m40.634182 279.109818c2.490182 22.085818 5.888 44.218182 9.285818 66.234182 15.872-10.868364 31.232-22.458182 46.592-34.048 3.165091-2.257455 6.004364-4.910545 8.448-7.912727-3.84-2.955636-8.517818-4.049455-12.8-6.05091-16.965818-6.632727-33.861818-13.614545-51.525818-18.222545z m308.48-76.869818c-15.034182-4.608-31.185455-1.978182-46.545455-0.884364 4.235636 53.108364 9.495273 106.123636 14.545455 159.092364 11.52 0.325818 23.04-0.442182 34.490182-0.698182-0.512-52.48 1.024-105.146182-2.490182-157.44v-0.069818z m431.616 0c-15.034182-4.468364-31.232-2.420364-46.592-0.884364 4.352 52.992 9.611636 106.123636 14.731636 159.092364 11.52 0.395636 23.04-0.628364 34.676364-0.442182-1.28-52.549818 0.837818-105.285818-2.816-157.765818z m-563.2-7.098182c-13.824-2.629818-28.090182 0.837818-41.797818 3.328-1.466182 0.651636-4.864 0.186182-4.538182 2.56 9.914182 51.712 20.224 103.424 30.394182 155.066182 11.52-1.908364 23.365818-2.164364 34.885818-3.956364-5.050182-45.381818-8.773818-90.88-15.034182-136.075636-1.163636-7.028364-1.792-14.08-3.84-20.922182h-0.069818z m431.802182-0.256c-15.36-2.373818-31.092364 1.536-46.08 4.864-0.232727 4.608 1.163636 9.029818 2.048 13.568 9.029818 47.616 18.688 95.232 27.927273 142.848 11.566545-1.908364 23.342545-2.373818 34.90909-3.909818-4.584727-44.916364-8.564364-89.832727-14.638545-134.586182-1.093818-7.610182-1.908364-15.36-4.096-22.784h-0.069818zM412.16 384l-4.468364 0.256c-11.077818 0.837818-22.225455 1.931636-33.28 4.096 18.292364 97.024 27.322182 195.514182 36.770909 293.562182 11.170909 0.581818 22.155636 0.325818 33.163637 1.396363-9.076364-99.188364-16.896-198.376727-23.412364-297.774545a29.626182 29.626182 0 0 0-13.195636-1.28l4.421818-0.256z m440.32 1.722182c-15.290182-3.258182-31.232 0.395636-46.405818 2.629818 18.432 96.954182 27.275636 195.514182 36.864 293.562182 11.008 0.581818 22.016 0.325818 33.047273 1.396363a12303.173818 12303.173818 0 0 1-23.505455-297.588363zM472.133818 463.36c-6.656-1.024-13.568 0.651636-20.293818 0.651636 0.954182 19.828364 3.072 39.68 4.165818 59.578182 5.352727-1.163636 11.008-0.256 16.244364-1.931636 2.117818-19.386182 0.256-38.842182 0-58.228364l-0.116364-0.069818z m431.872-0.186182c-6.795636-0.837818-13.707636 0.442182-20.549818 0.628364l4.282182 59.717818 15.941818-1.466182c2.746182-19.456 0.465455-39.237818 0.325818-58.88z m-412.811636-0.651636h-11.264c1.28 19.595636 0.395636 39.424 2.048 59.136 6.795636 0.768 13.568 1.536 20.363636 1.024a1934.266182 1934.266182 0 0 1 0-58.88 101.562182 101.562182 0 0 0-22.411636-1.396364l11.264 0.116364z m420.352-0.116364c1.349818 19.828364 0.325818 39.796364 2.327273 59.578182 6.702545 0.186182 13.428364 1.28 20.084363 0.651636a2257.757091 2257.757091 0 0 1 0.116364-58.88 104.331636 104.331636 0 0 0-22.528-1.28v-0.069818z m-579.723637-2.56c-6.632727 0.116364-13.288727 1.652364-19.944727 2.676364 3.072 19.781818 7.284364 39.493818 10.752 59.275636 5.492364-1.093818 10.868364-2.629818 16.314182-3.584 0-19.595636-3.909818-39.051636-7.028364-58.368h-0.069818z m431.755637 0c-6.842182 0.116364-13.428364 1.652364-19.968 2.676364 3.072 19.781818 7.237818 39.493818 10.635636 59.275636 5.492364-1.093818 10.752-2.56 16.244364-3.584a365.056 365.056 0 0 0-6.912-58.368z m-401.594182-2.629818a44.032 44.032 0 0 0-22.085818-0.186182c2.443636 20.224 4.887273 40.378182 7.68 60.532364 6.795636-0.884364 13.637818-1.024 20.48-1.396364-1.396364-19.595636-3.956364-39.237818-6.004364-58.949818h-0.069818z m429.451636-0.837818c-6.539636-0.512-13.498182-1.28-19.851636 0.768 2.373818 20.107636 4.864 40.261818 7.68 60.416 6.842182-0.884364 13.637818-1.024 20.48-1.396364-1.210182-17.989818-3.909818-35.909818-5.376-53.899636-0.465455-2.164364 0.186182-5.888-3.025455-5.818182v-0.069818h0.093091z" fill="#FFFFFF" p-id="23521"></path></svg>