<?xml version="1.0" standalone="no"?><!DOCTYPE svg PUBLIC "-//W3C//DTD SVG 1.1//EN" "http://www.w3.org/Graphics/SVG/1.1/DTD/svg11.dtd"><svg t="1631621800492" class="icon" viewBox="0 0 1061 1024" version="1.1" xmlns="http://www.w3.org/2000/svg" p-id="10618" xmlns:xlink="http://www.w3.org/1999/xlink" width="207.2265625" height="200"><defs><style type="text/css"></style></defs><path d="M530.963 7.585c-281.638 0-509.952 221.222-509.952 494.023 0 272.84 228.314 494.061 509.952 494.061s509.952-221.222 509.952-494.06c0-272.802-228.314-494.024-509.952-494.024z m325.025 703.678c-85.826 86.926-398.753 243.18-587.435-152.007 0 0-122.917-218.643 170.78-379.297 0 0-251.069-78.128-372.204 156.368 0 0 97.128-262.068 421.433-272.27 324.266-10.164 460.383 257.669 461.786 386.617 1.669 128.834-51.238 216.936-94.398 260.55z" fill="#D61518" p-id="10619"></path><path d="M338.982 621.72S172.677 347.895 467.209 164.485c0 0-372.546-168.467-413.923 301.245 0 0-5.423 83.134 22.225 169.415 0 0 3.185-72.173 53.21-119.163 0 0 33.185 110.516 66.522 129.062 0 0-8.875-92.918 34.398-106.079 0-0.113 43.502 102.249 109.34 82.755z" fill="#070002" p-id="10620"></path><path d="M512 267.454l293.243 195.09a27.61 27.61 0 0 1 0 46.27L512 703.905c-19.039 12.63-44.753-0.682-44.753-23.135V290.588c0-22.452 25.714-35.764 44.753-23.134z" fill="#D61518" p-id="10621"></path></svg>