<?xml version="1.0" standalone="no"?><!DOCTYPE svg PUBLIC "-//W3C//DTD SVG 1.1//EN" "http://www.w3.org/Graphics/SVG/1.1/DTD/svg11.dtd"><svg t="1631621152860" class="icon" viewBox="0 0 1102 1024" version="1.1" xmlns="http://www.w3.org/2000/svg" p-id="2672" xmlns:xlink="http://www.w3.org/1999/xlink" width="215.234375" height="200"><defs><style type="text/css"></style></defs><path d="M304.246154 9.255385a220.041846 220.041846 0 0 1 100.548923 12.20923 1487.281231 1487.281231 0 0 1 205.193846 84.283077 2500.529231 2500.529231 0 0 1 321.654154 190.897231 728.418462 728.418462 0 0 1 125.636923 104.211692c20.913231 23.867077 38.045538 54.350769 34.737231 86.961231-4.883692 38.990769-32.019692 70.183385-58.604308 97.28a2085.533538 2085.533538 0 0 1-366.867692 278.921846 1222.577231 1222.577231 0 0 1-215.000616 100.94277c-48.167385 16.659692-99.052308 30.838154-150.528 25.954461a125.006769 125.006769 0 0 1-80.81723-38.045538 146.786462 146.786462 0 0 1-33.28-70.695385l1.496615-2.048c22.488615-5.435077 44.740923-12.209231 67.229538-17.408a1371.490462 1371.490462 0 0 0 272.935385-102.951385 1846.153846 1846.153846 0 0 0 267.224615-158.995692c27.175385-20.755692 57.737846-41.078154 73.373539-73.373538a74.673231 74.673231 0 0 0-5.041231-72.428308 229.139692 229.139692 0 0 0-63.960615-63.960615 887.099077 887.099077 0 0 0-89.796923-56.477539c-58.998154-35.249231-121.028923-65.732923-183.256616-96.216615a1732.056615 1732.056615 0 0 0-222.12923-88.851693c-33.949538-9.846154-67.741538-20.243692-101.769847-29.459692 3.544615-15.241846 8.349538-30.168615 14.296616-44.622769A113.230769 113.230769 0 0 1 304.246154 9.216z" fill="#10ABF2" p-id="2673"></path><path d="M93.932308 126.660923c31.901538-15.281231 68.608-10.870154 102.242461-4.686769-10.161231 44.622769-15.911385 90.112-22.882461 135.246769-0.984615 19.456-3.032615 38.872615-5.435077 58.210462-3.702154 24.457846-2.835692 48.915692-6.734769 73.412923-0.708923 28.356923-2.087385 56.713846-3.229539 85.582769-2.914462 27.175385-1.181538 54.902154-1.654154 82.432 0 41.078154-0.984615 82.313846 2.048 123.273846 1.969231 62.621538 6.852923 125.046154 15.044923 187.234462v9.294769c-32.019692 5.750154-68.844308 10.358154-97.831384-9.216S38.439385 811.480615 31.074462 779.815385a1789.321846 1789.321846 0 0 1-25.796924-309.83877c1.614769-54.193231 6.537846-108.228923 14.651077-161.870769a679.778462 679.778462 0 0 1 30.247385-129.220923 90.820923 90.820923 0 0 1 43.716923-52.263385v0.07877z" fill="#FF8F21" p-id="2674"></path><path d="M196.765538 118.941538l6.852924 0.984616c34.028308 9.176615 68.017231 19.574154 101.769846 29.302154a1730.481231 1730.481231 0 0 1 222.208 88.969846c61.755077 30.72 123.785846 61.164308 183.453538 96.256 30.995692 17.171692 60.928 36.155077 89.639385 56.871384a229.218462 229.218462 0 0 1 63.921231 63.921231c14.139077 21.740308 16.029538 49.230769 4.962461 72.625231-15.36 31.901538-45.686154 52.263385-73.373538 73.373538a1846.744615 1846.744615 0 0 1-267.224616 159.035077 1371.923692 1371.923692 0 0 1-273.644307 102.675693c-22.528 5.435077-44.740923 12.209231-67.268924 17.368615l-12.8 2.363077c-0.630154-5.435077-1.378462-10.870154-2.087384-16.305231a1876.401231 1876.401231 0 0 1-15.044923-187.234461c-3.032615-40.96-1.693538-82.195692-2.087385-123.273846a770.914462 770.914462 0 0 1 1.772308-82.392616c1.063385-28.356923 2.441846-56.753231 3.150769-85.622154 3.899077-24.457846 3.032615-48.915692 6.695385-73.412923 2.205538-19.298462 4.332308-38.754462 5.474461-58.210461 6.931692-45.095385 12.209231-90.584615 22.843077-135.24677L196.647385 118.153846m128.827077 163.682462a28.356923 28.356923 0 0 0-18.707693 28.278154 386.363077 386.363077 0 0 0 0.984616 54.350769c0.708923 54.035692-0.866462 108.110769 0.984615 162.146461v143.675077a31.901538 31.901538 0 0 0 14.178462 30.956308c12.406154 3.150769 25.6 0.472615 35.721846-7.286154 86.961231-58.604308 174.473846-116.578462 261.592615-174.867692 10.870154-7.876923 22.724923-19.101538 21.385846-33.792a42.417231 42.417231 0 0 0-24.418461-31.507693L351.310769 288.807385a37.415385 37.415385 0 0 0-25.915077-6.971077z" fill="#7DE621" p-id="2675"></path><path d="M325.435077 281.836308a37.415385 37.415385 0 0 1 25.915077 6.971077l266.397538 164.982153c12.878769 5.789538 22.055385 17.604923 24.418462 31.507693 1.378462 14.690462-10.358154 25.954462-21.385846 33.792-87.000615 58.289231-174.670769 116.263385-261.592616 174.867692a41.708308 41.708308 0 0 1-35.446154 7.443692 31.901538 31.901538 0 0 1-14.060307-30.326153v-143.911385c-1.851077-54.035692 0-108.110769-0.984616-162.146462a386.717538 386.717538 0 0 1-1.732923-54.902153 28.356923 28.356923 0 0 1 18.707693-28.278154h-0.236308z" fill="#FFFFFF" p-id="2676"></path></svg>